<mxfile host="app.diagrams.net" modified="2020-05-08T06:41:16.173Z" agent="5.0 (Windows NT 10.0; Win64; x64) AppleWebKit/537.36 (KHTML, like Gecko) Chrome/81.0.4044.129 Safari/537.36 Edg/81.0.416.68" etag="y2cjsc5Cnl34v5sB9aUd" version="13.0.9" type="github">
  <diagram id="fuKhKUKI9TPdpv6UsRDI" name="Page-1">
    <mxGraphModel dx="1662" dy="746" grid="1" gridSize="10" guides="1" tooltips="1" connect="1" arrows="1" fold="1" page="1" pageScale="1" pageWidth="850" pageHeight="1100" math="0" shadow="0">
      <root>
        <mxCell id="0" />
        <mxCell id="1" parent="0" />
        <mxCell id="qZje0iIkWgZtfKszHh38-1" value="User" style="rounded=0;whiteSpace=wrap;html=1;" parent="1" vertex="1">
          <mxGeometry x="80" y="170" width="120" height="60" as="geometry" />
        </mxCell>
        <mxCell id="qZje0iIkWgZtfKszHh38-2" value="" style="endArrow=none;html=1;entryX=0.5;entryY=1;entryDx=0;entryDy=0;" parent="1" target="qZje0iIkWgZtfKszHh38-1" edge="1">
          <mxGeometry width="50" height="50" relative="1" as="geometry">
            <mxPoint x="140" y="880" as="sourcePoint" />
            <mxPoint x="170" y="440" as="targetPoint" />
          </mxGeometry>
        </mxCell>
        <mxCell id="qZje0iIkWgZtfKszHh38-3" value="Task" style="ellipse;whiteSpace=wrap;html=1;" parent="1" vertex="1">
          <mxGeometry x="280" y="160" width="120" height="80" as="geometry" />
        </mxCell>
        <mxCell id="qZje0iIkWgZtfKszHh38-4" value="Resource" style="ellipse;whiteSpace=wrap;html=1;" parent="1" vertex="1">
          <mxGeometry x="440" y="160" width="120" height="80" as="geometry" />
        </mxCell>
        <mxCell id="qZje0iIkWgZtfKszHh38-6" value="" style="endArrow=none;html=1;entryX=0.5;entryY=1;entryDx=0;entryDy=0;" parent="1" edge="1">
          <mxGeometry width="50" height="50" relative="1" as="geometry">
            <mxPoint x="339" y="880" as="sourcePoint" />
            <mxPoint x="339.28999999999996" y="240" as="targetPoint" />
          </mxGeometry>
        </mxCell>
        <mxCell id="qZje0iIkWgZtfKszHh38-7" value="" style="endArrow=none;html=1;entryX=0.5;entryY=1;entryDx=0;entryDy=0;" parent="1" edge="1">
          <mxGeometry width="50" height="50" relative="1" as="geometry">
            <mxPoint x="499" y="880" as="sourcePoint" />
            <mxPoint x="499.28999999999996" y="240" as="targetPoint" />
          </mxGeometry>
        </mxCell>
        <mxCell id="qZje0iIkWgZtfKszHh38-17" value="Issues" style="ellipse;whiteSpace=wrap;html=1;" parent="1" vertex="1">
          <mxGeometry x="600" y="160" width="120" height="80" as="geometry" />
        </mxCell>
        <mxCell id="uHhbq6WGqlBZ4b7MEo-g-2" value="" style="endArrow=none;html=1;entryX=0.5;entryY=1;entryDx=0;entryDy=0;" parent="1" edge="1">
          <mxGeometry width="50" height="50" relative="1" as="geometry">
            <mxPoint x="660" y="880" as="sourcePoint" />
            <mxPoint x="659.5" y="240" as="targetPoint" />
          </mxGeometry>
        </mxCell>
        <mxCell id="uHhbq6WGqlBZ4b7MEo-g-4" value="delete" style="endArrow=classic;dashed=1;html=1;" parent="1" edge="1">
          <mxGeometry width="160" relative="1" as="geometry">
            <mxPoint x="140" y="280" as="sourcePoint" />
            <mxPoint x="340" y="280" as="targetPoint" />
          </mxGeometry>
        </mxCell>
        <mxCell id="uHhbq6WGqlBZ4b7MEo-g-6" value="unassociate Resources" style="endArrow=classic;html=1;" parent="1" edge="1">
          <mxGeometry x="-0.1111" width="50" height="50" relative="1" as="geometry">
            <mxPoint x="140" y="480" as="sourcePoint" />
            <mxPoint x="500" y="480" as="targetPoint" />
            <mxPoint as="offset" />
          </mxGeometry>
        </mxCell>
        <mxCell id="uHhbq6WGqlBZ4b7MEo-g-8" value="unassociate Predecessor Task" style="endArrow=classic;html=1;" parent="1" edge="1">
          <mxGeometry x="-0.1" width="50" height="50" relative="1" as="geometry">
            <mxPoint x="140" y="400" as="sourcePoint" />
            <mxPoint x="340" y="400" as="targetPoint" />
            <mxPoint as="offset" />
          </mxGeometry>
        </mxCell>
        <mxCell id="uHhbq6WGqlBZ4b7MEo-g-9" value="unassociate Successor Task" style="endArrow=classic;html=1;" parent="1" edge="1">
          <mxGeometry x="-0.1111" width="50" height="50" relative="1" as="geometry">
            <mxPoint x="140" y="440" as="sourcePoint" />
            <mxPoint x="340" y="440" as="targetPoint" />
            <mxPoint as="offset" />
          </mxGeometry>
        </mxCell>
        <mxCell id="uHhbq6WGqlBZ4b7MEo-g-10" value="unassociate Issues" style="endArrow=classic;html=1;" parent="1" edge="1">
          <mxGeometry x="-0.1111" width="50" height="50" relative="1" as="geometry">
            <mxPoint x="140" y="520" as="sourcePoint" />
            <mxPoint x="660" y="520" as="targetPoint" />
            <mxPoint as="offset" />
          </mxGeometry>
        </mxCell>
        <mxCell id="uHhbq6WGqlBZ4b7MEo-g-11" value="remove attributes" style="endArrow=classic;html=1;" parent="1" edge="1">
          <mxGeometry width="160" relative="1" as="geometry">
            <mxPoint x="140" y="360" as="sourcePoint" />
            <mxPoint x="340" y="360" as="targetPoint" />
            <Array as="points">
              <mxPoint x="240" y="360" />
            </Array>
            <mxPoint as="offset" />
          </mxGeometry>
        </mxCell>
        <mxCell id="uHhbq6WGqlBZ4b7MEo-g-12" value="attributes removed" style="endArrow=classic;html=1;" parent="1" edge="1">
          <mxGeometry width="50" height="50" relative="1" as="geometry">
            <mxPoint x="340" y="600" as="sourcePoint" />
            <mxPoint x="140" y="600" as="targetPoint" />
            <mxPoint as="offset" />
          </mxGeometry>
        </mxCell>
        <mxCell id="uHhbq6WGqlBZ4b7MEo-g-13" value="Resources Unnasociated" style="endArrow=classic;html=1;" parent="1" edge="1">
          <mxGeometry width="50" height="50" relative="1" as="geometry">
            <mxPoint x="500" y="720" as="sourcePoint" />
            <mxPoint x="140" y="720" as="targetPoint" />
            <mxPoint as="offset" />
          </mxGeometry>
        </mxCell>
        <mxCell id="uHhbq6WGqlBZ4b7MEo-g-14" value="unassociated predecessor tasks" style="endArrow=classic;html=1;" parent="1" edge="1">
          <mxGeometry width="50" height="50" relative="1" as="geometry">
            <mxPoint x="340" y="640" as="sourcePoint" />
            <mxPoint x="140" y="640" as="targetPoint" />
            <mxPoint as="offset" />
          </mxGeometry>
        </mxCell>
        <mxCell id="uHhbq6WGqlBZ4b7MEo-g-15" value="unassociated successor tasks" style="endArrow=classic;html=1;" parent="1" edge="1">
          <mxGeometry width="50" height="50" relative="1" as="geometry">
            <mxPoint x="340" y="680" as="sourcePoint" />
            <mxPoint x="140" y="680" as="targetPoint" />
            <mxPoint as="offset" />
          </mxGeometry>
        </mxCell>
        <mxCell id="uHhbq6WGqlBZ4b7MEo-g-16" value="Issues unassociated" style="endArrow=classic;html=1;" parent="1" edge="1">
          <mxGeometry width="50" height="50" relative="1" as="geometry">
            <mxPoint x="660" y="760" as="sourcePoint" />
            <mxPoint x="140" y="760" as="targetPoint" />
            <mxPoint as="offset" />
          </mxGeometry>
        </mxCell>
        <mxCell id="uHhbq6WGqlBZ4b7MEo-g-17" value="Task deleted" style="endArrow=classic;dashed=1;html=1;" parent="1" edge="1">
          <mxGeometry width="50" height="50" relative="1" as="geometry">
            <mxPoint x="340" y="800" as="sourcePoint" />
            <mxPoint x="140" y="800" as="targetPoint" />
            <mxPoint as="offset" />
          </mxGeometry>
        </mxCell>
        <mxCell id="0tvfIhuJXahXTaXwLOik-1" value="UID removed" style="endArrow=classic;html=1;" parent="1" edge="1">
          <mxGeometry width="50" height="50" relative="1" as="geometry">
            <mxPoint x="340" y="560" as="sourcePoint" />
            <mxPoint x="140" y="560" as="targetPoint" />
            <mxPoint as="offset" />
          </mxGeometry>
        </mxCell>
        <mxCell id="0tvfIhuJXahXTaXwLOik-2" value="remove UID" style="endArrow=classic;html=1;" parent="1" edge="1">
          <mxGeometry width="160" relative="1" as="geometry">
            <mxPoint x="140" y="320" as="sourcePoint" />
            <mxPoint x="340" y="320" as="targetPoint" />
            <Array as="points">
              <mxPoint x="240" y="320" />
            </Array>
            <mxPoint as="offset" />
          </mxGeometry>
        </mxCell>
        <mxCell id="ZtSHgXul3dPWaHXQsrfd-1" value="Delete" style="rounded=0;whiteSpace=wrap;html=1;" vertex="1" parent="1">
          <mxGeometry x="365" y="50" width="120" height="60" as="geometry" />
        </mxCell>
      </root>
    </mxGraphModel>
  </diagram>
</mxfile>
